<svg width="720" height="220" viewBox="0 0 720 220" role="img" aria-label="AudioFlow" xmlns="http://www.w3.org/2000/svg">
  <defs>
    <linearGradient id="glassDark" x1="32" y1="28" x2="182" y2="188" gradientUnits="userSpaceOnUse">
      <stop offset="0" stop-color="#182b4d"/>
      <stop offset=".55" stop-color="#111a34"/>
      <stop offset="1" stop-color="#24133e"/>
    </linearGradient>
    <linearGradient id="ribbonDark" x1="55" y1="157" x2="168" y2="55" gradientUnits="userSpaceOnUse">
      <stop offset="0" stop-color="#18c7e8"/>
      <stop offset=".46" stop-color="#4f7cff"/>
      <stop offset="1" stop-color="#a45bff"/>
    </linearGradient>
    <filter id="softShadowDark" x="-20%" y="-20%" width="140%" height="140%">
      <feDropShadow dx="0" dy="14" stdDeviation="16" flood-color="#18c7e8" flood-opacity=".22"/>
    </filter>
  </defs>
  <rect width="720" height="220" rx="34" fill="#0c1130"/>
  <g filter="url(#softShadowDark)">
    <rect x="36" y="32" width="156" height="156" rx="45" fill="url(#glassDark)" stroke="#2dd4ff" stroke-width="4"/>
    <circle cx="116" cy="105" r="66" fill="#18c7e8" opacity=".18"/>
    <circle cx="132" cy="86" r="58" fill="#a45bff" opacity=".16"/>
    <path d="M67 149c17-50 35-78 54-83 15-4 24 8 19 36" fill="none" stroke="url(#ribbonDark)" stroke-width="18" stroke-linecap="round" stroke-linejoin="round"/>
    <path d="M140 102c-6 20 1 47 26 47 13 0 22-8 28-20" fill="none" stroke="url(#ribbonDark)" stroke-width="17" stroke-linecap="round" stroke-linejoin="round"/>
    <path d="M66 111c16-22 31-22 47 0s31 22 46 0 30-22 44 0" fill="none" stroke="url(#ribbonDark)" stroke-width="11" stroke-linecap="round" stroke-linejoin="round"/>
    <path d="M169 58l5 12 13 5-13 5-5 12-5-12-13-5 13-5 5-12Z" fill="#8b6cff"/>
  </g>
  <text x="228" y="112" fill="#f8fbff" font-family="Inter, Segoe UI, Arial, sans-serif" font-size="54" font-weight="800">AudioFlow</text>
  <text x="231" y="152" fill="#aebbd0" font-family="Inter, Segoe UI, Arial, sans-serif" font-size="22" font-weight="600">Multi-platform audiobook workflow</text>
</svg>
