<svg width="360" height="360" viewBox="0 0 64 64" fill="none" xmlns="http://www.w3.org/2000/svg">
  <defs>
    <linearGradient id="mark" x1="14" y1="16" x2="52" y2="50" gradientUnits="userSpaceOnUse">
      <stop offset="0" stop-color="#18c7df"/>
      <stop offset=".48" stop-color="#2f7df6"/>
      <stop offset="1" stop-color="#8b5cf6"/>
    </linearGradient>
    <linearGradient id="page" x1="13" y1="20" x2="51" y2="50" gradientUnits="userSpaceOnUse">
      <stop offset="0" stop-color="#ffffff"/>
      <stop offset="1" stop-color="#eaf4ff"/>
    </linearGradient>
    <radialGradient id="glow" cx="50%" cy="38%" r="58%">
      <stop offset="0" stop-color="#18c7df" stop-opacity=".22"/>
      <stop offset=".58" stop-color="#2f7df6" stop-opacity=".1"/>
      <stop offset="1" stop-color="#8b5cf6" stop-opacity="0"/>
    </radialGradient>
  </defs>
  <rect x="4.5" y="4.5" width="55" height="55" rx="17" fill="#f8fcff" stroke="#a7d8ff" stroke-width="1.4"/>
  <circle cx="32" cy="31" r="25" fill="url(#glow)"/>
  <path d="M14.5 23.5c0-2.5 2-4.5 4.5-4.5h10.8c2.1 0 3.8 1.7 3.8 3.8v24.6c-2.3-2.1-5.4-3.2-9.2-3.2H19c-2.5 0-4.5-2-4.5-4.5V23.5Z" fill="url(#page)" stroke="#cae7ff" stroke-width="1.1"/>
  <path d="M49.5 23.5c0-2.5-2-4.5-4.5-4.5H34.2c-2.1 0-3.8 1.7-3.8 3.8v24.6c2.3-2.1 5.4-3.2 9.2-3.2H45c2.5 0 4.5-2 4.5-4.5V23.5Z" fill="url(#page)" stroke="#cae7ff" stroke-width="1.1"/>
  <path d="M32 22v25" stroke="#8aa3bd" stroke-opacity=".48" stroke-width="1.4" stroke-linecap="round"/>
  <path d="M18 36c4.2-6.3 8.6-6.3 13.1 0s8.8 6.3 13.1 0" stroke="url(#mark)" stroke-width="4.4" stroke-linecap="round" stroke-linejoin="round"/>
  <path d="M20 42c3.5-3.2 7-3.2 10.6 0s7.2 3.2 10.9 0" stroke="url(#mark)" stroke-width="2.7" stroke-linecap="round" stroke-linejoin="round" opacity=".76"/>
  <path d="M31 24.4c0-1.2 1.3-1.9 2.3-1.3l8.2 5.2c.9.6.9 2 0 2.6l-8.2 5.2c-1 .6-2.3-.1-2.3-1.3V24.4Z" fill="url(#mark)"/>
</svg>
