<svg width="360" height="360" viewBox="0 0 64 64" fill="none" xmlns="http://www.w3.org/2000/svg">
  <rect x="4.5" y="4.5" width="55" height="55" rx="17" fill="none" stroke="currentColor" stroke-width="1.8"/>
  <path d="M15 22 19 19h10l4.6 4v24.2c-2.1-1.9-5.1-3-8.9-3H19c-2.5 0-4-2-4-4.2V22Z" stroke="currentColor" stroke-width="2.4" stroke-linejoin="round"/>
  <path d="M49 22 45 19H35l-4.6 4v24.2c2.1-1.9 5.1-3 8.9-3H45c2.5 0 4-2 4-4.2V22Z" stroke="currentColor" stroke-width="2.4" stroke-linejoin="round"/>
  <path d="M18 36c4.2-6.3 8.6-6.3 13.1 0s8.8 6.3 13.1 0" stroke="currentColor" stroke-width="4.4" stroke-linecap="round" stroke-linejoin="round"/>
  <path d="M31 23 43 30 31 37V23Z" fill="currentColor"/>
</svg>
