<svg width="64" height="64" viewBox="0 0 64 64" role="img" aria-label="AudioFlow" xmlns="http://www.w3.org/2000/svg">
  <defs>
    <linearGradient id="glass" x1="12" y1="8" x2="52" y2="57" gradientUnits="userSpaceOnUse">
      <stop offset="0" stop-color="#ffffff"/>
      <stop offset=".55" stop-color="#eefbff"/>
      <stop offset="1" stop-color="#f2edff"/>
    </linearGradient>
    <linearGradient id="ribbon" x1="13" y1="46" x2="52" y2="14" gradientUnits="userSpaceOnUse">
      <stop offset="0" stop-color="#18c7e8"/>
      <stop offset=".46" stop-color="#4f7cff"/>
      <stop offset="1" stop-color="#a45bff"/>
    </linearGradient>
    <linearGradient id="accent" x1="16" y1="20" x2="49" y2="47" gradientUnits="userSpaceOnUse">
      <stop offset="0" stop-color="#a45bff"/>
      <stop offset=".55" stop-color="#18c7e8"/>
      <stop offset="1" stop-color="#4f7cff"/>
    </linearGradient>
    <radialGradient id="glow" cx="50%" cy="38%" r="58%">
      <stop offset="0" stop-color="#18c7e8" stop-opacity=".34"/>
      <stop offset=".54" stop-color="#4f7cff" stop-opacity=".16"/>
      <stop offset="1" stop-color="#a45bff" stop-opacity="0"/>
    </radialGradient>
    <filter id="shadow" x="-20%" y="-20%" width="140%" height="140%">
      <feDropShadow dx="0" dy="6" stdDeviation="5" flood-color="#4f7cff" flood-opacity=".24"/>
    </filter>
    <style>
      @media (prefers-color-scheme: dark) {
        #tile{fill:url(#darkGlass);stroke:#2dd4ff}
        .page{stroke:#d8ecff}
      }
    </style>
    <linearGradient id="darkGlass" x1="12" y1="8" x2="52" y2="57" gradientUnits="userSpaceOnUse">
      <stop offset="0" stop-color="#182b4d"/>
      <stop offset=".55" stop-color="#111a34"/>
      <stop offset="1" stop-color="#24133e"/>
    </linearGradient>
  </defs>
  <rect id="tile" x="5" y="5" width="54" height="54" rx="17" fill="url(#glass)" stroke="#80e8ff" stroke-width="1.2"/>
  <circle cx="33" cy="31" r="24" fill="url(#glow)"/>
  <g filter="url(#shadow)">
    <path class="page" d="M17 42.5c5.8-2.9 11-3 15.1.1 4.3-3 9.3-3 14.9-.1" fill="none" stroke="#526178" stroke-width="2.3" stroke-linecap="round" stroke-linejoin="round" opacity=".58"/>
    <path class="page" d="M18.5 37.5c5-2.3 9.6-2.3 13.5.5 3.9-2.8 8.5-2.8 13.5-.5" fill="none" stroke="#526178" stroke-width="1.6" stroke-linecap="round" stroke-linejoin="round" opacity=".36"/>
    <path d="M17.5 43.5C24 24.8 30 16.8 35.6 19.7c3.2 1.7 3.4 6.4.4 14.4" fill="none" stroke="url(#ribbon)" stroke-width="6.4" stroke-linecap="round" stroke-linejoin="round"/>
    <path d="M35.9 34.1c-1.7 5.3.2 9.7 5.7 9.7 3.5 0 5.5-1.9 7.1-5.1" fill="none" stroke="url(#ribbon)" stroke-width="5.8" stroke-linecap="round" stroke-linejoin="round"/>
    <path d="M18.6 33.7c3.5-4.8 7-4.8 10.6 0s7 4.8 10.5 0 6.8-4.8 10 0" fill="none" stroke="url(#accent)" stroke-width="3.8" stroke-linecap="round" stroke-linejoin="round" opacity=".92"/>
    <path d="M46.5 18.2l1.3 3.2 3.4 1.2-3.4 1.2-1.3 3.2-1.3-3.2-3.4-1.2 3.4-1.2 1.3-3.2Z" fill="url(#accent)" opacity=".9"/>
  </g>
</svg>
